# xmcd
#
# Track frame offsets:
#	150
#	17398
#	32555
#	45728
#	61352
#	77154
#	93578
#	104196
#	118526
#	137687
#	155821
#	167687
#	188971
#	209726
#	215000
#	222726
#	229288
#	235085
#
# Disc length: 3224
#
# Revision: 1
# Processed by: cddbd v1.5.1PL0 Copyright (c) Steve Scherf et al.
# Submitted via: VisiTrax 2.9.5.180 - For more info visit www.synapsa.com
# Normalized: r0:DSETVAR1
#
DISCID=100c9612
DTITLE=Various Artist - CDXMAS 1013A December 2000
DYEAR=2000
DGENRE=Christmas
TTITLE0=Vince Vance and The Valiants - All I want for christmas is you
TTITLE1=Jeff Foxworth/Bill Engvall/Ron White/Larry The cable guy - Blue collar christmas
TTITLE2=Ricky Van Shelton - Country Christmas
TTITLE3=Clay Walker - Cowboy christmas
TTITLE4=SHeDaisy - Deck the halls
TTITLE5=Alecia Elliott - Have yourself a merry little christmas
TTITLE6=Bill Engvall - Here's your sign christmas
TTITLE7=Neal McCoy - I'll be home for christmas/Have yourself a merry little christmas
TTITLE8=Collin Raye - It could happen again
TTITLE9=SHeDaisy - Jingle bells
TTITLE10=Geezinslaws - Lighten up it's christmas
TTITLE11=Lonestar - Little drummer boy
TTITLE12=Tim Wilson - The family reunion
TTITLE13=Tim Wilson - The family reunion
TTITLE14=Tim Wilson - The family reunion
TTITLE15=Tim Wilson - The family reunion
TTITLE16=Tim Wilson - The family reunion
TTITLE17=Tim Wilson - The family reunion
EXTD=
EXTT0=
EXTT1=
EXTT2=
EXTT3=
EXTT4=
EXTT5=
EXTT6=
EXTT7=
EXTT8=
EXTT9=
EXTT10=
EXTT11=
EXTT12=
EXTT13=
EXTT14=
EXTT15=
EXTT16=
EXTT17=
PLAYORDER=
